<svg width="63" height="62" viewBox="0 0 63 62" fill="none" xmlns="http://www.w3.org/2000/svg">
<path d="M60.3991 18.7253C59.2173 16.0652 57.6532 13.5862 55.7546 11.3643C52.9481 7.98174 49.4457 5.22261 45.4779 3.26853C41.5101 1.31447 37.1668 0.209747 32.7341 0.0270699C28.3014 -0.155607 23.8797 0.587903 19.7598 2.2087C15.64 3.82948 11.9156 6.29079 8.83174 9.43061C5.74784 12.5704 3.37439 16.3176 1.8676 20.4255C0.360815 24.5332 -0.245175 28.9087 0.0895539 33.2636C0.424306 37.6187 1.69214 41.8545 3.80965 45.6923C5.92717 49.5304 8.84635 52.8833 12.375 55.5305C14.6392 57.2631 17.1411 58.6715 19.8062 59.714C23.5427 61.2214 27.5418 61.9977 31.58 62C39.9155 61.9819 47.9035 58.7111 53.7934 52.9045C59.6831 47.098 62.9939 39.2297 63 31.0242C63.006 26.7916 62.1205 22.6038 60.3991 18.7253ZM31.5568 6.31214C35.1832 6.31177 38.7657 7.092 42.0533 8.59817C41.2517 8.93918 40.4087 9.17736 39.5453 9.30687C36.7043 9.7117 34.0725 11.0101 32.0426 13.0083C30.0127 15.0065 28.6937 17.5974 28.2824 20.3941C28.102 21.9626 27.3772 23.4218 26.2307 24.5255C25.0842 25.6292 23.5861 26.3095 21.9891 26.4521C19.1481 26.857 16.5162 28.1555 14.4864 30.1537C12.4565 32.1519 11.1375 34.7427 10.7263 37.5394C10.587 39.0308 9.94061 40.4324 8.89168 41.5171C7.08184 37.7527 6.26882 33.5985 6.52826 29.4416C6.7877 25.2847 8.11117 21.2599 10.3755 17.7417C12.6399 14.2237 15.7715 11.3266 19.479 9.32022C23.1865 7.31383 27.3493 6.26333 31.58 6.26642L31.5568 6.31214ZM12.3518 47.0265C12.6305 46.775 12.9092 46.5464 13.1878 46.2721C15.2538 44.3004 16.58 41.6975 16.9499 38.8882C17.0998 37.309 17.816 35.834 18.9702 34.7276C20.0809 33.5896 21.5758 32.8903 23.1735 32.7616C26.0145 32.3567 28.6463 31.0583 30.6762 29.06C32.7061 27.0618 34.0251 24.4711 34.4364 21.6743C34.5369 20.0227 35.2568 18.4666 36.4567 17.308C37.5948 16.1921 39.1038 15.5183 40.7064 15.4106C43.3164 15.0571 45.7506 13.9149 47.6732 12.1416C49.8623 13.9294 51.7169 16.0801 53.1537 18.4967C53.0654 18.614 52.9642 18.7214 52.8518 18.8168C51.7434 19.9648 50.2504 20.6794 48.6485 20.8285C45.8044 21.2263 43.1687 22.5224 41.1374 24.5218C39.1064 26.5214 37.7897 29.1161 37.3856 31.9158C37.2219 33.4895 36.5106 34.9592 35.3722 36.0757C34.2336 37.1924 32.7381 37.8871 31.1388 38.0423C28.2894 38.444 25.6478 39.74 23.6061 41.7373C21.5646 43.7348 20.2319 46.3272 19.8062 49.1296C19.6813 50.2468 19.2914 51.3196 18.6683 52.2615C16.2857 50.8688 14.1518 49.1004 12.3518 47.0265ZM31.5568 55.8506C29.2004 55.8531 26.8552 55.5298 24.59 54.8904C25.365 53.4685 25.8687 51.9188 26.0763 50.3184C26.2391 48.7481 26.9471 47.2811 28.0808 46.1651C29.2146 45.049 30.7047 44.352 32.2999 44.1918C35.1451 43.7915 37.7822 42.4951 39.8168 40.4964C41.851 38.4979 43.1736 35.9044 43.586 33.1045C43.7488 31.5342 44.4568 30.0673 45.5906 28.9512C46.7243 27.8352 48.2145 27.1382 49.8096 26.9779C51.9507 26.7038 53.9915 25.919 55.7546 24.6919C56.7336 28.3447 56.8495 32.1697 56.0936 35.8736C55.3377 39.5774 53.7298 43.0618 51.3936 46.059C49.0574 49.056 46.055 51.4867 42.6162 53.1642C39.1777 54.8417 35.3945 55.7216 31.5568 55.7363V55.8506Z" fill="#394149"/>
</svg>
